<svg version="1.1" xmlns="http://www.w3.org/2000/svg" viewBox="0 0 1020 446.25" width="1020" height="446.25"><!-- svg-source:excalidraw --><metadata></metadata><defs><style class="style-fonts">
      </style></defs><rect x="0" y="0" width="1020" height="446.25" fill="#ffffff"></rect><g transform="translate(25 25) rotate(0 215.24999999999997 16.25)"><text x="0" y="23.2705078125" font-family="Helvetica, sans-serif, Segoe UI Emoji" font-size="26px" fill="#334155" text-anchor="start" style="white-space: pre;" direction="ltr" dominant-baseline="alphabetic">EBS: moving data through snapshots</text></g><g stroke-linecap="round" transform="translate(25 85) rotate(0 117.5 130)"><path d="M32 0 C67.95 -0.29, 103.55 -0.61, 203 0 M203 0 C225.09 0.37, 233.82 9.79, 235 32 M235 32 C233.58 109.6, 234.17 187.34, 235 228 M235 228 C234.13 248.36, 223.26 258.64, 203 260 M203 260 C147.1 260.31, 86.74 257.97, 32 260 M32 260 C10.69 261.93, -0.67 248.24, 0 228 M0 228 C-2.28 163.08, -1.8 95.97, 0 32 M0 32 C-1.81 11.4, 12.05 -0.1, 32 0" stroke="#94a3b8" stroke-width="2" fill="none" stroke-dasharray="8 9.5"></path></g><g transform="translate(40 95) rotate(0 43.56249999999999 11.25)"><text x="0" y="16.1103515625" font-family="Helvetica, sans-serif, Segoe UI Emoji" font-size="18px" fill="#64748b" text-anchor="start" style="white-space: pre;" direction="ltr" dominant-baseline="alphabetic">us-east-1a</text></g><g stroke-linecap="round" transform="translate(760 85) rotate(0 117.5 130)"><path d="M32 0 C65.66 0.94, 102.91 1.03, 203 0 M203 0 C223.97 0.91, 236.23 10.57, 235 32 M235 32 C234.09 79.82, 235.03 124.93, 235 228 M235 228 C234.48 249.34, 224.94 261.65, 203 260 M203 260 C140.19 261.6, 76.97 261.21, 32 260 M32 260 C10.27 258.65, -1.89 250.5, 0 228 M0 228 C1.59 176.27, 1.86 121.3, 0 32 M0 32 C-0.75 11.51, 9.68 1.31, 32 0" stroke="#94a3b8" stroke-width="2" fill="none" stroke-dasharray="8 9.5"></path></g><g transform="translate(775 95) rotate(0 43.5625 11.25)"><text x="0" y="16.1103515625" font-family="Helvetica, sans-serif, Segoe UI Emoji" font-size="18px" fill="#64748b" text-anchor="start" style="white-space: pre;" direction="ltr" dominant-baseline="alphabetic">us-east-1b</text></g><g stroke-linecap="round" transform="translate(60 140) rotate(0 80 30)"><path d="M15 0 C54.39 0.06, 96.8 -0.14, 145 0 C154.42 1.45, 161.58 6.73, 160 15 C162.42 23.66, 162.57 33.11, 160 45 C159.12 55.02, 155.44 59.76, 145 60 C112.9 60.59, 82.94 63.06, 15 60 C3.89 59.62, -1.47 58.05, 0 45 C-1.32 39.07, 0.12 28.03, 0 15 C-0.29 2.62, 4.88 -0.83, 15 0" stroke="none" stroke-width="0" fill="#dbeafe"></path><path d="M15 0 C41.99 -1.47, 68.5 -0.98, 145 0 M15 0 C44.7 0.03, 73.05 -0.46, 145 0 M145 0 C155.88 -1.63, 158.18 4.16, 160 15 M145 0 C154.79 1.13, 158.03 5.77, 160 15 M160 15 C160.08 19.29, 159.65 27.08, 160 45 M160 15 C159.62 21.84, 159.59 31.1, 160 45 M160 45 C160.93 56.86, 155.97 59.44, 145 60 M160 45 C160.36 56.1, 155.73 58.52, 145 60 M145 60 C98.47 59.53, 48.32 60.07, 15 60 M145 60 C104.04 61.64, 63.54 61.1, 15 60 M15 60 C4.83 60.81, 1.2 55.8, 0 45 M15 60 C4.31 58.41, -0.96 52.92, 0 45 M0 45 C1.35 33.94, -1.4 25.64, 0 15 M0 45 C0.48 37.23, 0.05 28.96, 0 15 M0 15 C0.53 3.42, 6.17 -1.72, 15 0 M0 15 C-0.74 2.95, 5.89 2.2, 15 0" stroke="#334155" stroke-width="1.5" fill="none"></path></g><g transform="translate(122.0625 158.75) rotate(0 17.9375 11.25)"><text x="17.9375" y="16.1103515625" font-family="Helvetica, sans-serif, Segoe UI Emoji" font-size="18px" fill="#334155" text-anchor="middle" style="white-space: pre;" direction="ltr" dominant-baseline="alphabetic">EC2</text></g><g stroke-linecap="round" transform="translate(60 260) rotate(0 80 30)"><path d="M15 0 C58.9 3.21, 108.04 -1.77, 145 0 C152.74 3.22, 162.43 6.64, 160 15 C158.72 25.66, 156.08 33.91, 160 45 C161.78 54.44, 152.69 62.9, 145 60 C104.68 59.68, 62.23 59.75, 15 60 C5.12 61.26, -0.75 55.63, 0 45 C1.83 31.65, 2.7 22.07, 0 15 C-3.09 8.3, 3.43 -1.78, 15 0" stroke="none" stroke-width="0" fill="#dcfce7"></path><path d="M15 0 C39.71 2.53, 67.87 -0.58, 145 0 M15 0 C63.81 1.49, 112.03 1.43, 145 0 M145 0 C153.29 -0.57, 159.94 3.42, 160 15 M145 0 C155.19 2.25, 159.96 4.63, 160 15 M160 15 C158.87 20.84, 161.57 27.64, 160 45 M160 15 C160.86 22.58, 160.32 28.66, 160 45 M160 45 C158.12 53.66, 156.94 60, 145 60 M160 45 C161.58 56.22, 153 60.14, 145 60 M145 60 C92.5 59.08, 42.23 59.65, 15 60 M145 60 C99.53 60.95, 54.84 61.12, 15 60 M15 60 C5.05 60.24, 0.85 56.86, 0 45 M15 60 C3.37 58.37, -1.24 53.11, 0 45 M0 45 C-0.53 34.17, 0.69 28.16, 0 15 M0 45 C-0.78 37.92, -0.77 30.45, 0 15 M0 15 C1.4 3.42, 3.07 -0.34, 15 0 M0 15 C-1.98 3.4, 3.31 2.15, 15 0" stroke="#334155" stroke-width="1.5" fill="none"></path></g><g transform="translate(92.85 278.75) rotate(0 47.14999999999999 11.25)"><text x="47.15" y="16.1103515625" font-family="Helvetica, sans-serif, Segoe UI Emoji" font-size="18px" fill="#334155" text-anchor="middle" style="white-space: pre;" direction="ltr" dominant-baseline="alphabetic">EBS 50 GB</text></g><g stroke-linecap="round"><g transform="translate(140 260) rotate(0 -0.24087633068074865 -30)"><path d="M0 0 C-0.62 -12.75, -1.41 -23.74, 0 -60 M0 0 C-0.43 -18.17, 0.87 -38.62, 0 -60" stroke="#334155" stroke-width="1.5" fill="none"></path></g><g transform="translate(140 260) rotate(0 -0.24087633068074865 -30)"><path d="M8.92 -36.65 C6.76 -41.93, 4.14 -45.43, 0 -60 M8.92 -36.65 C5.43 -43.3, 3.93 -52.25, 0 -60" stroke="#334155" stroke-width="1.5" fill="none"></path></g><g transform="translate(140 260) rotate(0 -0.24087633068074865 -30)"><path d="M-8.17 -36.37 C-6.85 -41.66, -5.96 -45.21, 0 -60 M-8.17 -36.37 C-6.31 -43.15, -2.44 -52.19, 0 -60" stroke="#334155" stroke-width="1.5" fill="none"></path></g></g><mask></mask><g stroke-linecap="round" transform="translate(430 250) rotate(0 100 37.5)"><path d="M18.75 0 C50.06 -0.66, 82.72 -2.01, 181.25 0 C196.16 -1.33, 200.11 7.75, 200 18.75 C198.52 28.32, 198.9 45.09, 200 56.25 C198.59 67.32, 194.51 75.41, 181.25 75 C127.88 71.71, 80.37 75.38, 18.75 75 C8.23 71.52, -3.27 65.75, 0 56.25 C-1.06 46.2, 2.56 31.62, 0 18.75 C-0.08 3.68, 6.1 0.39, 18.75 0" stroke="none" stroke-width="0" fill="#fef3c7"></path><path d="M18.75 0 C50.68 -2.95, 85.96 -1.47, 181.25 0 M18.75 0 C81.76 -0.49, 143.32 -0.9, 181.25 0 M181.25 0 C194.15 -0.98, 200.57 7.55, 200 18.75 M181.25 0 C192.24 1.64, 198.26 4.17, 200 18.75 M200 18.75 C201.31 29.13, 198.69 40.65, 200 56.25 M200 18.75 C200.76 26.99, 200.47 34.85, 200 56.25 M200 56.25 C201.9 68.62, 195.14 75.84, 181.25 75 M200 56.25 C198.82 67.86, 192.26 75.27, 181.25 75 M181.25 75 C141.84 75.44, 103.43 76.08, 18.75 75 M181.25 75 C117.19 75.01, 53.4 75.25, 18.75 75 M18.75 75 C6.64 76.37, -1.68 70.19, 0 56.25 M18.75 75 C7.81 75.62, -1.66 69.45, 0 56.25 M0 56.25 C-0.42 42.03, -1.26 27.74, 0 18.75 M0 56.25 C-0.04 47.28, -0.38 37.07, 0 18.75 M0 18.75 C0.71 4.66, 5.67 1.74, 18.75 0 M0 18.75 C-1.54 5.34, 5.3 2.07, 18.75 0" stroke="#334155" stroke-width="1.5" fill="none"></path></g><g transform="translate(471.575 276.25) rotate(0 58.42499999999998 11.25)"><text x="58.425" y="16.1103515625" font-family="Helvetica, sans-serif, Segoe UI Emoji" font-size="18px" fill="#334155" text-anchor="middle" style="white-space: pre;" direction="ltr" dominant-baseline="alphabetic">EBS snapshot</text></g><g stroke-linecap="round"><g transform="translate(220 290) rotate(0 105 0.09428079698571423)"><path d="M0 0 C43.32 1.68, 85.99 -0.19, 210 0 M0 0 C69.88 -0.71, 139.15 -0.68, 210 0" stroke="#334155" stroke-width="1.5" fill="none"></path></g><g transform="translate(220 290) rotate(0 105 0.09428079698571423)"><path d="M186.45 8.39 C191.74 7.26, 196.23 3.42, 210 0 M186.45 8.39 C194.96 4.91, 202.75 2.17, 210 0" stroke="#334155" stroke-width="1.5" fill="none"></path></g><g transform="translate(220 290) rotate(0 105 0.09428079698571423)"><path d="M186.57 -8.71 C191.7 -6.35, 196.18 -6.69, 210 0 M186.57 -8.71 C194.98 -6.55, 202.74 -3.65, 210 0" stroke="#334155" stroke-width="1.5" fill="none"></path></g></g><mask></mask><g transform="translate(290 264) rotate(0 30.75 9.375)"><text x="0" y="13.42529296875" font-family="Helvetica, sans-serif, Segoe UI Emoji" font-size="15px" fill="#334155" text-anchor="start" style="white-space: pre;" direction="ltr" dominant-baseline="alphabetic">snapshot</text></g><g stroke-linecap="round"><g transform="translate(630 290) rotate(0 85 0.3005939995216522)"><path d="M0 0 C32.9 -1.14, 69 1.14, 170 0 M0 0 C45.64 1, 93.36 1.47, 170 0" stroke="#334155" stroke-width="1.5" fill="none"></path></g><g transform="translate(630 290) rotate(0 85 0.3005939995216522)"><path d="M146.63 8.87 C149.56 5.47, 155.67 5.93, 170 0 M146.63 8.87 C152.14 6.34, 159.72 4.38, 170 0" stroke="#334155" stroke-width="1.5" fill="none"></path></g><g transform="translate(630 290) rotate(0 85 0.3005939995216522)"><path d="M146.39 -8.23 C149.31 -8.13, 155.47 -4.17, 170 0 M146.39 -8.23 C151.96 -6.08, 159.6 -3.36, 170 0" stroke="#334155" stroke-width="1.5" fill="none"></path></g></g><mask></mask><g transform="translate(680 264) rotate(0 23.57499999999999 9.375)"><text x="0" y="13.42529296875" font-family="Helvetica, sans-serif, Segoe UI Emoji" font-size="15px" fill="#334155" text-anchor="start" style="white-space: pre;" direction="ltr" dominant-baseline="alphabetic">restore</text></g><g stroke-linecap="round" transform="translate(800 140) rotate(0 80 30)"><path d="M15 0 C60.42 -2.79, 99.39 3.11, 145 0 C152.36 -3.21, 162.68 6.24, 160 15 C162.81 22.06, 162.01 33.92, 160 45 C159.39 51.83, 154.69 62.64, 145 60 C103.1 63.69, 61.46 60.15, 15 60 C3.48 61.43, -1.11 51.94, 0 45 C-1.11 35.46, 0.79 19.21, 0 15 C-1.28 5.08, 7.69 -2.47, 15 0" stroke="none" stroke-width="0" fill="#dbeafe"></path><path d="M15 0 C41.43 0.14, 67 -1.19, 145 0 M15 0 C42.81 -0.45, 71.44 -1.54, 145 0 M145 0 C155.61 -1.81, 161.85 4.06, 160 15 M145 0 C154.68 0.4, 159.45 4.11, 160 15 M160 15 C158.96 27.82, 161.71 38.16, 160 45 M160 15 C159.83 25.9, 160.04 34.68, 160 45 M160 45 C161.48 53.28, 155.29 58.52, 145 60 M160 45 C157.88 54.49, 154.53 60.53, 145 60 M145 60 C99.64 59.03, 56.83 59.79, 15 60 M145 60 C108.2 59.82, 70.68 60.19, 15 60 M15 60 C6.07 59.65, 1.27 55.61, 0 45 M15 60 C3.74 60.52, 2.1 56.28, 0 45 M0 45 C-0.88 38.19, -1.82 29.53, 0 15 M0 45 C0.85 36.03, -0.18 26.13, 0 15 M0 15 C-0.68 3.39, 3.11 1.89, 15 0 M0 15 C-0.67 5.46, 5.54 1.9, 15 0" stroke="#334155" stroke-width="1.5" fill="none"></path></g><g transform="translate(862.0625 158.75) rotate(0 17.9375 11.25)"><text x="17.9375" y="16.1103515625" font-family="Helvetica, sans-serif, Segoe UI Emoji" font-size="18px" fill="#334155" text-anchor="middle" style="white-space: pre;" direction="ltr" dominant-baseline="alphabetic">EC2</text></g><g stroke-linecap="round" transform="translate(800 260) rotate(0 80 30)"><path d="M15 0 C64.94 -4.33, 110.63 -3.2, 145 0 C157.88 -1.44, 163.53 6.15, 160 15 C159.12 24.06, 162.73 34.72, 160 45 C162.06 58.45, 151.94 58.58, 145 60 C94.88 62.78, 40.76 56.84, 15 60 C4.72 63.07, -0.39 56.72, 0 45 C2.03 34.04, 3.37 32.45, 0 15 C3.12 3.57, 6.24 -3.43, 15 0" stroke="none" stroke-width="0" fill="#dcfce7"></path><path d="M15 0 C43.15 -2.46, 66.36 0.61, 145 0 M15 0 C61.92 1.01, 108.42 0.36, 145 0 M145 0 C153.02 -0.75, 159.6 3.32, 160 15 M145 0 C155.08 1.53, 161.38 2.97, 160 15 M160 15 C161.75 23.37, 159.64 30.72, 160 45 M160 15 C159.07 24.64, 160.78 34.24, 160 45 M160 45 C158.67 54.08, 156.26 59.08, 145 60 M160 45 C159.1 54.61, 156.4 62.15, 145 60 M145 60 C97.67 58.58, 46.74 59.38, 15 60 M145 60 C103.69 59.13, 61.98 60.21, 15 60 M15 60 C6.3 59.07, 0.91 56.66, 0 45 M15 60 C2.8 60.48, 1.82 56.47, 0 45 M0 45 C1.85 38.42, 0.86 28.06, 0 15 M0 45 C-0.41 36.72, 1 29.62, 0 15 M0 15 C0.2 3.38, 4 -0.73, 15 0 M0 15 C-1.91 5.92, 2.96 1.85, 15 0" stroke="#334155" stroke-width="1.5" fill="none"></path></g><g transform="translate(819.0125 280) rotate(0 60.98750000000001 10)"><text x="60.9875" y="14.3203125" font-family="Helvetica, sans-serif, Segoe UI Emoji" font-size="16px" fill="#334155" text-anchor="middle" style="white-space: pre;" direction="ltr" dominant-baseline="alphabetic">New EBS 50 GB</text></g><g stroke-linecap="round"><g transform="translate(880 260) rotate(0 0.008453259243424327 -30)"><path d="M0 0 C-1.12 -12.15, 1.15 -24.95, 0 -60 M0 0 C-0.16 -19.34, 0.47 -35.9, 0 -60" stroke="#334155" stroke-width="1.5" fill="none"></path></g><g transform="translate(880 260) rotate(0 0.008453259243424327 -30)"><path d="M8.76 -36.58 C6.08 -41.17, 6.56 -46.49, 0 -60 M8.76 -36.58 C6.19 -44.66, 4.15 -50.04, 0 -60" stroke="#334155" stroke-width="1.5" fill="none"></path></g><g transform="translate(880 260) rotate(0 0.008453259243424327 -30)"><path d="M-8.34 -36.43 C-7.52 -41.2, -3.55 -46.55, 0 -60 M-8.34 -36.43 C-5.68 -44.71, -2.5 -50.13, 0 -60" stroke="#334155" stroke-width="1.5" fill="none"></path></g></g><mask></mask><g transform="translate(25 400) rotate(0 238.29648437499998 10.625)"><text x="0" y="15.21533203125" font-family="Helvetica, sans-serif, Segoe UI Emoji" font-size="17px" fill="#475569" text-anchor="start" style="white-space: pre;" direction="ltr" dominant-baseline="alphabetic">A snapshot creates a new volume in another Availability Zone.</text></g></svg>
