<svg version="1.1" xmlns="http://www.w3.org/2000/svg" viewBox="0 0 1170.3249999999998 605" width="1170.3249999999998" height="605"><!-- svg-source:excalidraw --><metadata></metadata><defs><style class="style-fonts">
      </style></defs><rect x="0" y="0" width="1170.3249999999998" height="605" fill="#ffffff"></rect><g transform="translate(25 25) rotate(0 329.025 16.25)"><text x="0" y="23.2705078125" font-family="Helvetica, sans-serif, Segoe UI Emoji" font-size="26px" fill="#334155" text-anchor="start" style="white-space: pre;" direction="ltr" dominant-baseline="alphabetic">ElastiCache: Redis replication and Memcached sharding</text></g><g stroke-linecap="round" transform="translate(25 100) rotate(0 267.5 240)"><path d="M32 0 C135.02 -0.3, 236.61 0.39, 503 0 M503 0 C524.72 1.88, 533.03 10.79, 535 32 M535 32 C532.62 136.03, 533.32 239.6, 535 448 M535 448 C536.48 468.52, 525.02 479.54, 503 480 M503 480 C387.92 480.07, 272.85 480.39, 32 480 M32 480 C10.01 479.56, -1.03 468.17, 0 448 M0 448 C-1.48 315.29, -2.22 182.79, 0 32 M0 32 C-0.43 11.28, 9.31 1.36, 32 0" stroke="#94a3b8" stroke-width="2" fill="none" stroke-dasharray="8 9.5"></path></g><g transform="translate(40 112) rotate(0 45.6125 11.25)"><text x="0" y="16.1103515625" font-family="Helvetica, sans-serif, Segoe UI Emoji" font-size="18px" fill="#334155" text-anchor="start" style="white-space: pre;" direction="ltr" dominant-baseline="alphabetic">Redis OSS</text></g><g stroke-linecap="round" transform="translate(610 100) rotate(0 267.5 240)"><path d="M32 0 C134 -0.3, 238.12 -1.22, 503 0 M503 0 C523.6 -1.58, 535.45 11.58, 535 32 M535 32 C536.85 154.37, 537.74 274.73, 535 448 M535 448 C536.83 469.5, 522.7 478.55, 503 480 M503 480 C371.02 481.26, 239.07 480.67, 32 480 M32 480 C9.59 480.27, 1.75 470.44, 0 448 M0 448 C2.24 342.02, 1.38 233.52, 0 32 M0 32 C0.63 11.39, 10.94 -1.23, 32 0" stroke="#94a3b8" stroke-width="2" fill="none" stroke-dasharray="8 9.5"></path></g><g transform="translate(625 112) rotate(0 107.11250000000001 11.25)"><text x="0" y="16.1103515625" font-family="Helvetica, sans-serif, Segoe UI Emoji" font-size="18px" fill="#334155" text-anchor="start" style="white-space: pre;" direction="ltr" dominant-baseline="alphabetic">Memcached · node-based</text></g><g stroke-linecap="round" transform="translate(65 190) rotate(0 95 45)"><path d="M22.5 0 C61.67 -1.05, 96.73 5.19, 167.5 0 C184.53 0.65, 192.21 4.42, 190 22.5 C188.55 36.39, 192.68 56.99, 190 67.5 C187.66 84.19, 183.87 93.16, 167.5 90 C126.57 92.87, 78.57 88.31, 22.5 90 C9.92 91.75, -1.57 84.1, 0 67.5 C1.39 59.22, -2.12 47.88, 0 22.5 C-1.15 8, 9.31 1.66, 22.5 0" stroke="none" stroke-width="0" fill="#dcfce7"></path><path d="M22.5 0 C54.31 -1.9, 86.79 0.44, 167.5 0 M22.5 0 C53.4 1.18, 83.08 1.28, 167.5 0 M167.5 0 C183.39 1.96, 188.89 8.86, 190 22.5 M167.5 0 C180.4 1.31, 190.05 9.29, 190 22.5 M190 22.5 C187.74 38.41, 189.92 49.2, 190 67.5 M190 22.5 C189.91 33.57, 190.29 42.6, 190 67.5 M190 67.5 C188.99 80.72, 183.66 88.74, 167.5 90 M190 67.5 C191.95 83.45, 184.68 90.2, 167.5 90 M167.5 90 C111.35 88.92, 58.05 90.69, 22.5 90 M167.5 90 C113.69 89.22, 57.66 88.69, 22.5 90 M22.5 90 C6.77 88.42, 1.96 82.22, 0 67.5 M22.5 90 C6.27 90.85, 0.99 83.95, 0 67.5 M0 67.5 C-0.87 49.82, 0.5 34.57, 0 22.5 M0 67.5 C-0.57 52.34, -0.21 37.24, 0 22.5 M0 22.5 C0.27 7.26, 6.12 -1.36, 22.5 0 M0 22.5 C1.3 6.66, 8.9 -2.19, 22.5 0" stroke="#334155" stroke-width="1.5" fill="none"></path></g><g transform="translate(128.225 223.75) rotate(0 31.77499999999999 11.25)"><text x="31.775" y="16.1103515625" font-family="Helvetica, sans-serif, Segoe UI Emoji" font-size="18px" fill="#334155" text-anchor="middle" style="white-space: pre;" direction="ltr" dominant-baseline="alphabetic">Primary</text></g><g stroke-linecap="round" transform="translate(330 190) rotate(0 95 45)"><path d="M22.5 0 C66.78 -2.87, 109.16 -1.41, 167.5 0 C182.85 2.42, 193.06 4.33, 190 22.5 C191.8 30.15, 193.14 41.32, 190 67.5 C190.32 83.61, 181.12 89.1, 167.5 90 C110.08 84.51, 62.94 84.75, 22.5 90 C3.96 93.38, -0.85 81.68, 0 67.5 C-2.48 50.51, 0.65 39.32, 0 22.5 C3.25 6.49, 7.86 0.71, 22.5 0" stroke="none" stroke-width="0" fill="#dcfce7"></path><path d="M22.5 0 C56.02 2.34, 86.15 1.08, 167.5 0 M22.5 0 C72.67 -0.14, 124.38 -1.61, 167.5 0 M167.5 0 C180.8 -0.98, 190.65 8.11, 190 22.5 M167.5 0 C180.8 -2.16, 191.98 8.16, 190 22.5 M190 22.5 C191.3 36.49, 188.6 54.81, 190 67.5 M190 22.5 C191.2 32, 191.08 41.53, 190 67.5 M190 67.5 C190.18 81.52, 180.63 89.3, 167.5 90 M190 67.5 C188.57 83.58, 181.95 91.82, 167.5 90 M167.5 90 C137.91 88.46, 105.02 90.27, 22.5 90 M167.5 90 C137.7 88.5, 108.01 88.68, 22.5 90 M22.5 90 C6.99 91.84, 1.61 83.27, 0 67.5 M22.5 90 C5.34 90.82, 0.71 84.14, 0 67.5 M0 67.5 C1.93 54.45, -0.73 37.89, 0 22.5 M0 67.5 C0.14 55.74, 0.93 42.14, 0 22.5 M0 22.5 C1.14 7.26, 7.02 0.03, 22.5 0 M0 22.5 C0.06 7.12, 6.32 -2.24, 22.5 0" stroke="#334155" stroke-width="1.5" fill="none"></path></g><g transform="translate(394.25 223.75) rotate(0 30.75 11.25)"><text x="30.749999999999996" y="16.1103515625" font-family="Helvetica, sans-serif, Segoe UI Emoji" font-size="18px" fill="#334155" text-anchor="middle" style="white-space: pre;" direction="ltr" dominant-baseline="alphabetic">Replica</text></g><g stroke-linecap="round"><g transform="translate(255 235) rotate(0 37.5 -0.3587830211024823)"><path d="M0 0 C15.98 -0.56, 32.49 -1.42, 75 0 M0 0 C21.77 -0.67, 43.86 0.3, 75 0" stroke="#334155" stroke-width="1.5" fill="none"></path></g><g transform="translate(255 235) rotate(0 37.5 -0.3587830211024823)"><path d="M51.51 8.55 C56.18 5.95, 61.46 3.22, 75 0 M51.51 8.55 C58.07 5.28, 64.95 3.72, 75 0" stroke="#334155" stroke-width="1.5" fill="none"></path></g><g transform="translate(255 235) rotate(0 37.5 -0.3587830211024823)"><path d="M51.51 -8.55 C56.34 -7.42, 61.62 -6.42, 75 0 M51.51 -8.55 C58.08 -6.78, 64.95 -3.28, 75 0" stroke="#334155" stroke-width="1.5" fill="none"></path></g></g><mask></mask><g transform="translate(55 335) rotate(0 262.39199218749997 21.25)"><text x="0" y="15.21533203125" font-family="Helvetica, sans-serif, Segoe UI Emoji" font-size="17px" fill="#334155" text-anchor="start" style="white-space: pre;" direction="ltr" dominant-baseline="alphabetic">Replication, Multi-AZ failover, snapshots. Sets / sorted sets. Modern</text><text x="0" y="36.46533203125" font-family="Helvetica, sans-serif, Segoe UI Emoji" font-size="17px" fill="#334155" text-anchor="start" style="white-space: pre;" direction="ltr" dominant-baseline="alphabetic">ElastiCache does not use AOF.</text></g><g stroke-linecap="round" transform="translate(650 190) rotate(0 100 45)"><path d="M22.5 0 C80.79 -1.35, 141.58 -2.25, 177.5 0 C189.48 -1.23, 197.57 4.15, 200 22.5 C202.73 35.67, 198.48 53.16, 200 67.5 C198.46 82.45, 192.81 88.18, 177.5 90 C127.39 87.3, 79.02 89.95, 22.5 90 C6.43 89.46, 0.59 84.04, 0 67.5 C2.58 56.47, -2.64 40.2, 0 22.5 C-2.35 10.66, 4.95 -1.2, 22.5 0" stroke="none" stroke-width="0" fill="#dbeafe"></path><path d="M22.5 0 C57.64 1.02, 89.24 0.55, 177.5 0 M22.5 0 C59.6 1.11, 95.77 0.52, 177.5 0 M177.5 0 C193.61 1.14, 200.17 6.62, 200 22.5 M177.5 0 C191.59 0.08, 201.24 5.88, 200 22.5 M200 22.5 C199.51 31.64, 199.06 44.03, 200 67.5 M200 22.5 C198.88 37.85, 199.76 55.39, 200 67.5 M200 67.5 C198.57 83.12, 192.57 90.42, 177.5 90 M200 67.5 C201.02 83.83, 191.1 90.46, 177.5 90 M177.5 90 C136.25 91.53, 91.41 89.43, 22.5 90 M177.5 90 C135 92.06, 93.29 91.65, 22.5 90 M22.5 90 C7.45 90.69, 0.9 81.38, 0 67.5 M22.5 90 C8.06 90.75, 0.15 84.52, 0 67.5 M0 67.5 C-1.36 55.7, -0.1 40.53, 0 22.5 M0 67.5 C-0.43 49.54, -0.77 33.94, 0 22.5 M0 22.5 C-1.11 7.24, 8.81 -1.2, 22.5 0 M0 22.5 C2.18 8.04, 5.78 2.25, 22.5 0" stroke="#334155" stroke-width="1.5" fill="none"></path></g><g transform="translate(704.3875 212.5) rotate(0 45.61250000000001 22.5)"><text x="45.6125" y="16.1103515625" font-family="Helvetica, sans-serif, Segoe UI Emoji" font-size="18px" fill="#334155" text-anchor="middle" style="white-space: pre;" direction="ltr" dominant-baseline="alphabetic">Shard A</text><text x="45.6125" y="38.6103515625" font-family="Helvetica, sans-serif, Segoe UI Emoji" font-size="18px" fill="#334155" text-anchor="middle" style="white-space: pre;" direction="ltr" dominant-baseline="alphabetic">Some keys</text></g><g stroke-linecap="round" transform="translate(905 190) rotate(0 100 45)"><path d="M22.5 0 C55.3 2.23, 92.82 3.74, 177.5 0 C195 0.54, 198.43 4.06, 200 22.5 C200.4 38.43, 200.56 55.49, 200 67.5 C201.13 81.87, 190.05 91.32, 177.5 90 C117.4 91.56, 61.98 91.8, 22.5 90 C7.66 91.1, 1.31 81.62, 0 67.5 C-1.29 47.76, 0.13 31.64, 0 22.5 C2.05 9.14, 10.7 -2.15, 22.5 0" stroke="none" stroke-width="0" fill="#dbeafe"></path><path d="M22.5 0 C55.35 -1.68, 88.6 -1.75, 177.5 0 M22.5 0 C82.31 -0.33, 141.95 -0.49, 177.5 0 M177.5 0 C191.01 -1.8, 201.93 5.88, 200 22.5 M177.5 0 C191.99 1.2, 198.57 9.35, 200 22.5 M200 22.5 C198.17 33.72, 200.85 45.64, 200 67.5 M200 22.5 C200.17 38.27, 200.55 52.33, 200 67.5 M200 67.5 C199.76 83.93, 193.54 90.98, 177.5 90 M200 67.5 C202.24 83.96, 192.97 92.08, 177.5 90 M177.5 90 C129.5 91.07, 79.75 89.01, 22.5 90 M177.5 90 C129.69 91.32, 83.01 91.63, 22.5 90 M22.5 90 C7.67 90.12, 0.55 82.44, 0 67.5 M22.5 90 C7.12 90.71, -0.13 84.72, 0 67.5 M0 67.5 C1.45 56.32, -1.33 43.85, 0 22.5 M0 67.5 C0.28 52.94, 0.38 36.84, 0 22.5 M0 22.5 C-0.24 7.23, 5.71 0.18, 22.5 0 M0 22.5 C0.94 8.49, 7.81 2.19, 22.5 0" stroke="#334155" stroke-width="1.5" fill="none"></path></g><g transform="translate(960.4125 212.5) rotate(0 44.587500000000034 22.5)"><text x="44.5875" y="16.1103515625" font-family="Helvetica, sans-serif, Segoe UI Emoji" font-size="18px" fill="#334155" text-anchor="middle" style="white-space: pre;" direction="ltr" dominant-baseline="alphabetic">Shard B</text><text x="44.5875" y="38.6103515625" font-family="Helvetica, sans-serif, Segoe UI Emoji" font-size="18px" fill="#334155" text-anchor="middle" style="white-space: pre;" direction="ltr" dominant-baseline="alphabetic">Other keys</text></g><g transform="translate(640 335) rotate(0 252.6624999999999 21.25)"><text x="0" y="15.21533203125" font-family="Helvetica, sans-serif, Segoe UI Emoji" font-size="17px" fill="#334155" text-anchor="start" style="white-space: pre;" direction="ltr" dominant-baseline="alphabetic">Multithreaded cache. No replication or persistence for node-based</text><text x="0" y="36.46533203125" font-family="Helvetica, sans-serif, Segoe UI Emoji" font-size="17px" fill="#334155" text-anchor="start" style="white-space: pre;" direction="ltr" dominant-baseline="alphabetic">clusters. Serverless Memcached supports snapshots.</text></g></svg>
