<svg version="1.1" xmlns="http://www.w3.org/2000/svg" viewBox="0 0 900 546.25" width="900" height="546.25"><!-- svg-source:excalidraw --><metadata></metadata><defs><style class="style-fonts">
      </style></defs><rect x="0" y="0" width="900" height="546.25" fill="#ffffff"></rect><g transform="translate(25 25) rotate(0 363.958984375 16.25)"><text x="0" y="23.2705078125" font-family="Helvetica, sans-serif, Segoe UI Emoji" font-size="26px" fill="#334155" text-anchor="start" style="white-space: pre;" direction="ltr" dominant-baseline="alphabetic">RDS: разгрузка основной БД с помощью read replica</text></g><g stroke-linecap="round" transform="translate(25 105) rotate(0 125 45)"><path d="M22.5 0 C69.56 -2.37, 115.39 -0.44, 227.5 0 C245.29 -2.09, 249.87 9.41, 250 22.5 C251.55 30.26, 250.09 38, 250 67.5 C250.98 83.68, 241.25 90.67, 227.5 90 C164.27 88.65, 110.54 88.71, 22.5 90 C3.91 93.55, -2.91 83.19, 0 67.5 C0.89 51.1, 3.47 40.66, 0 22.5 C-1.89 8.15, 10.29 1.08, 22.5 0" stroke="none" stroke-width="0" fill="#dbeafe"></path><path d="M22.5 0 C65.3 -0.28, 107.78 -0.56, 227.5 0 M22.5 0 C91.36 1.92, 161.23 0.7, 227.5 0 M227.5 0 C240.57 0.26, 248.66 8.15, 250 22.5 M227.5 0 C241.5 -1.12, 248.77 5.94, 250 22.5 M250 22.5 C251.94 38.75, 249.26 51.58, 250 67.5 M250 22.5 C249.89 36.37, 250.86 50.51, 250 67.5 M250 67.5 C248.55 82.75, 241.53 88.32, 227.5 90 M250 67.5 C247.92 83.34, 244.09 89.88, 227.5 90 M227.5 90 C166.03 90.55, 101.59 90.96, 22.5 90 M227.5 90 C176.59 87.97, 123.7 88.01, 22.5 90 M22.5 90 C6.87 91.96, 1.9 81.19, 0 67.5 M22.5 90 C8.68 88.48, -0.4 84.63, 0 67.5 M0 67.5 C-0.13 50.24, 1.2 31.6, 0 22.5 M0 67.5 C1.12 50.81, -0.18 33.41, 0 22.5 M0 22.5 C-1.21 5.94, 6.88 -0.49, 22.5 0 M0 22.5 C1.74 9.13, 8.93 -2.29, 22.5 0" stroke="#334155" stroke-width="1.5" fill="none"></path></g><g transform="translate(61.5 138.75) rotate(0 105.77499999999998 11.25)"><text x="0" y="16.1103515625" font-family="Helvetica, sans-serif, Segoe UI Emoji" font-size="18px" fill="#334155" text-anchor="start" style="white-space: pre;" direction="ltr" dominant-baseline="alphabetic">Production application</text></g><g stroke-linecap="round" transform="translate(625 105) rotate(0 125 45)"><path d="M22.5 0 C77.15 1.58, 132.53 -0.75, 227.5 0 C243.6 -0.32, 250.72 9.32, 250 22.5 C247.61 33.02, 250.55 47.53, 250 67.5 C246.45 83.1, 245.7 86.62, 227.5 90 C150.63 86.73, 79.46 91.07, 22.5 90 C5.15 87.98, -2.19 80.77, 0 67.5 C2.6 58.59, -2.58 50.09, 0 22.5 C2.51 6.63, 8.84 0.12, 22.5 0" stroke="none" stroke-width="0" fill="#dbeafe"></path><path d="M22.5 0 C63.26 0.7, 107.21 0.77, 227.5 0 M22.5 0 C80.22 -1.68, 137.86 -0.73, 227.5 0 M227.5 0 C241.98 1.31, 250.42 7.41, 250 22.5 M227.5 0 C241.9 0.01, 250.7 9.4, 250 22.5 M250 22.5 C250.6 40.82, 251.04 57.19, 250 67.5 M250 22.5 C250.28 34.8, 248.75 47.44, 250 67.5 M250 67.5 C249.74 83.56, 242.5 88.88, 227.5 90 M250 67.5 C249.14 83.47, 241.36 91.5, 227.5 90 M227.5 90 C157.91 90.13, 90.57 90.57, 22.5 90 M227.5 90 C169.74 90.9, 112.09 91.57, 22.5 90 M22.5 90 C7.1 91.39, 1.55 82.25, 0 67.5 M22.5 90 C7.75 88.44, -0.68 80.23, 0 67.5 M0 67.5 C-1.32 50.86, -0.03 34.92, 0 22.5 M0 67.5 C-0.16 52.21, 0.97 38.31, 0 22.5 M0 22.5 C-0.34 5.93, 7.78 0.89, 22.5 0 M0 22.5 C0.5 9.59, 6.36 2.26, 22.5 0" stroke="#334155" stroke-width="1.5" fill="none"></path></g><g transform="translate(665.5 138.75) rotate(0 101.17500000000001 11.25)"><text x="0" y="16.1103515625" font-family="Helvetica, sans-serif, Segoe UI Emoji" font-size="18px" fill="#334155" text-anchor="start" style="white-space: pre;" direction="ltr" dominant-baseline="alphabetic">Reporting application</text></g><g stroke-linecap="round" transform="translate(25 340) rotate(0 125 50)"><path d="M25 0 C85.71 -0.98, 149.15 -1.16, 225 0 C241.09 1.45, 251.58 10.06, 250 25 C252.5 39.82, 252.65 55.43, 250 75 C249.12 91.69, 242.11 99.76, 225 100 C176.65 101.35, 130.21 103.56, 25 100 C7.22 99.62, -1.47 94.72, 0 75 C-1.24 63.07, 0.2 46.03, 0 25 C-0.29 5.95, 8.22 -0.83, 25 0" stroke="none" stroke-width="0" fill="#dcfce7"></path><path d="M25 0 C66.27 -1.87, 107.1 -1.43, 225 0 M25 0 C70.47 0.14, 114.72 -0.3, 225 0 M225 0 C242.55 -1.63, 248.18 7.5, 250 25 M225 0 C241.46 1.13, 248.03 9.1, 250 25 M250 25 C250.18 33.44, 249.75 45.37, 250 75 M250 25 C249.56 37.02, 249.52 51.46, 250 75 M250 75 C250.93 93.53, 242.64 99.44, 225 100 M250 75 C250.36 92.76, 242.4 98.52, 225 100 M225 100 C152.7 99.7, 77.15 100.18, 25 100 M225 100 C161.97 101.94, 99.35 101.46, 25 100 M25 100 C8.16 100.81, 1.2 92.47, 0 75 M25 100 C7.64 98.41, -0.96 89.59, 0 75 M0 75 C1.53 57.33, -1.21 42.43, 0 25 M0 75 C0.57 61.73, 0.14 47.96, 0 25 M0 25 C0.53 6.76, 9.51 -1.72, 25 0 M0 25 C-0.74 6.28, 9.22 2.2, 25 0" stroke="#334155" stroke-width="1.5" fill="none"></path></g><g transform="translate(82 367.5) rotate(0 82.19999999999999 22.5)"><text x="0" y="16.1103515625" font-family="Helvetica, sans-serif, Segoe UI Emoji" font-size="18px" fill="#334155" text-anchor="start" style="white-space: pre;" direction="ltr" dominant-baseline="alphabetic">RDS primary</text><text x="0" y="38.6103515625" font-family="Helvetica, sans-serif, Segoe UI Emoji" font-size="18px" fill="#334155" text-anchor="start" style="white-space: pre;" direction="ltr" dominant-baseline="alphabetic">Чтение и запись</text></g><g stroke-linecap="round" transform="translate(625 340) rotate(0 125 50)"><path d="M25 0 C93.09 2.93, 165.9 -1.55, 225 0 C239.4 3.22, 252.43 9.97, 250 25 C248.46 42.84, 245.83 58.26, 250 75 C251.78 91.11, 239.36 102.9, 225 100 C163.37 99.48, 99.82 99.54, 25 100 C8.46 101.26, -0.75 92.3, 0 75 C2.16 53.92, 3.03 36.61, 0 25 C-3.09 11.64, 6.76 -1.78, 25 0" stroke="none" stroke-width="0" fill="#dcfce7"></path><path d="M25 0 C64.22 2.74, 106.53 -0.07, 225 0 M25 0 C99.62 1.95, 173.71 1.9, 225 0 M225 0 C239.96 -0.57, 249.94 6.75, 250 25 M225 0 C241.86 2.25, 249.96 7.96, 250 25 M250 25 C248.79 35.69, 251.49 47.33, 250 75 M250 25 C250.87 37.34, 250.33 48.19, 250 75 M250 75 C248.12 90.33, 243.6 100, 225 100 M250 75 C251.58 92.89, 239.67 100.14, 225 100 M225 100 C144.73 99.28, 66.46 99.8, 25 100 M225 100 C155.28 101.21, 86.27 101.37, 25 100 M25 100 C8.39 100.24, 0.85 93.53, 0 75 M25 100 C6.7 98.37, -1.24 89.78, 0 75 M0 75 C-0.64 58.09, 0.58 46.01, 0 25 M0 75 C-0.72 63.36, -0.72 51.33, 0 25 M0 25 C1.4 6.75, 6.4 -0.34, 25 0 M0 25 C-1.98 6.74, 6.65 2.15, 25 0" stroke="#334155" stroke-width="1.5" fill="none"></path></g><g transform="translate(681.5 367.5) rotate(0 82.77499999999998 22.5)"><text x="0" y="16.1103515625" font-family="Helvetica, sans-serif, Segoe UI Emoji" font-size="18px" fill="#334155" text-anchor="start" style="white-space: pre;" direction="ltr" dominant-baseline="alphabetic">RDS read replica</text><text x="0" y="38.6103515625" font-family="Helvetica, sans-serif, Segoe UI Emoji" font-size="18px" fill="#334155" text-anchor="start" style="white-space: pre;" direction="ltr" dominant-baseline="alphabetic">Чтение</text></g><g stroke-linecap="round"><g transform="translate(150 195) rotate(0 -0.27985521091778764 72.5)"><path d="M0 0 C0.95 29.18, 0.16 60.12, 0 145 M0 0 C-1.93 46.15, -0.63 90.02, 0 145" stroke="#334155" stroke-width="1.5" fill="none"></path></g><g transform="translate(150 195) rotate(0 -0.27985521091778764 72.5)"><path d="M8.62 23.47 C6.51 18.16, 3.96 14.64, 0 0 M8.62 23.47 C5.22 16.78, 3.82 7.79, 0 0" stroke="#334155" stroke-width="1.5" fill="none"></path></g><g transform="translate(150 195) rotate(0 -0.27985521091778764 72.5)"><path d="M-8.48 23.52 C-7.09 18.26, -6.14 14.73, 0 0 M-8.48 23.52 C-6.52 16.77, -2.55 7.77, 0 0" stroke="#334155" stroke-width="1.5" fill="none"></path></g><g transform="translate(150 195) rotate(0 -0.27985521091778764 72.5)"><path d="M-8.87 121.63 C-7.04 125.96, -6.02 132.02, 0 145 M-8.87 121.63 C-7.13 129.59, -3.04 135.31, 0 145" stroke="#334155" stroke-width="1.5" fill="none"></path></g><g transform="translate(150 195) rotate(0 -0.27985521091778764 72.5)"><path d="M8.23 121.39 C6.56 125.72, 4.09 131.83, 0 145 M8.23 121.39 C4.6 129.47, 3.32 135.26, 0 145" stroke="#334155" stroke-width="1.5" fill="none"></path></g></g><mask></mask><g transform="translate(115 241.5) rotate(0 45.400000000000006 9.375)"><text x="0" y="13.42529296875" font-family="Helvetica, sans-serif, Segoe UI Emoji" font-size="15px" fill="#334155" text-anchor="start" style="white-space: pre;" direction="ltr" dominant-baseline="alphabetic">read / write</text></g><g stroke-linecap="round"><g transform="translate(750 195) rotate(0 -0.6070246206396632 72.5)"><path d="M0 0 C0.25 31.11, -2.89 58.45, 0 145 M0 0 C-1.15 36.45, -0.7 74.64, 0 145" stroke="#334155" stroke-width="1.5" fill="none"></path></g><g transform="translate(750 195) rotate(0 -0.6070246206396632 72.5)"><path d="M-8.77 121.59 C-5.64 127.82, -6.98 130.29, 0 145 M-8.77 121.59 C-7.1 126.75, -4.38 133.6, 0 145" stroke="#334155" stroke-width="1.5" fill="none"></path></g><g transform="translate(750 195) rotate(0 -0.6070246206396632 72.5)"><path d="M8.33 121.43 C7.96 127.71, 3.12 130.21, 0 145 M8.33 121.43 C5.59 126.54, 3.9 133.43, 0 145" stroke="#334155" stroke-width="1.5" fill="none"></path></g></g><mask></mask><g transform="translate(715 241.5) rotate(0 37.35000000000002 9.375)"><text x="0" y="13.42529296875" font-family="Helvetica, sans-serif, Segoe UI Emoji" font-size="15px" fill="#334155" text-anchor="start" style="white-space: pre;" direction="ltr" dominant-baseline="alphabetic">SELECT</text></g><g stroke-linecap="round"><g transform="translate(275 390) rotate(0 175 -0.5304622361360032)"><path d="M0 0 C71.12 -1.53, 144.34 -0.18, 350 0 M0 0 C70.55 -1.79, 140.9 -0.98, 350 0" stroke="#334155" stroke-width="1.5" fill="none"></path></g><g transform="translate(275 390) rotate(0 175 -0.5304622361360032)"><path d="M326.47 8.43 C330.59 5.97, 337.91 6.32, 350 0 M326.47 8.43 C331.14 6.09, 335.5 5.64, 350 0" stroke="#334155" stroke-width="1.5" fill="none"></path></g><g transform="translate(275 390) rotate(0 175 -0.5304622361360032)"><path d="M326.55 -8.67 C330.56 -7.63, 337.87 -3.78, 350 0 M326.55 -8.67 C331.18 -7.56, 335.51 -4.56, 350 0" stroke="#334155" stroke-width="1.5" fill="none"></path></g></g><mask></mask><g transform="translate(415 364) rotate(0 68.39999999999998 9.375)"><text x="0" y="13.42529296875" font-family="Helvetica, sans-serif, Segoe UI Emoji" font-size="15px" fill="#334155" text-anchor="start" style="white-space: pre;" direction="ltr" dominant-baseline="alphabetic">Async replication</text></g><g transform="translate(25 500) rotate(0 405.90703125 10.625)"><text x="0" y="15.21533203125" font-family="Helvetica, sans-serif, Segoe UI Emoji" font-size="17px" fill="#475569" text-anchor="start" style="white-space: pre;" direction="ltr" dominant-baseline="alphabetic">Отчёты читают реплику. Репликация асинхронная, поэтому возможна задержка данных.</text></g></svg>