<svg version="1.1" xmlns="http://www.w3.org/2000/svg" viewBox="0 0 1130 606.25" width="1130" height="606.25"><!-- svg-source:excalidraw --><metadata></metadata><defs><style class="style-fonts">
      </style></defs><rect x="0" y="0" width="1130" height="606.25" fill="#ffffff"></rect><g transform="translate(25 25) rotate(0 393.823046875 16.25)"><text x="0" y="23.2705078125" font-family="Helvetica, sans-serif, Segoe UI Emoji" font-size="26px" fill="#334155" text-anchor="start" style="white-space: pre;" direction="ltr" dominant-baseline="alphabetic">Route 53: распределённая проверка публичного endpoint</text></g><g stroke-linecap="round" transform="translate(25 110) rotate(0 150 45)"><path d="M22.5 0 C121.4 5.05, 213.43 0.36, 277.5 0 C290.7 -2.89, 300.5 4.6, 300 22.5 C297.63 38.06, 300.14 45.15, 300 67.5 C299.52 85.35, 292.18 86.88, 277.5 90 C186.54 89.99, 96.77 90.19, 22.5 90 C7.45 88.47, -3.01 81.74, 0 67.5 C3.54 53.26, 1.17 47.01, 0 22.5 C-2.76 11.03, 5.02 3.57, 22.5 0" stroke="none" stroke-width="0" fill="#ede9fe"></path><path d="M22.5 0 C78.71 -0.5, 132.34 0.75, 277.5 0 M22.5 0 C103.96 1.62, 184.83 2.61, 277.5 0 M277.5 0 C290.58 -0.15, 299.38 6.35, 300 22.5 M277.5 0 C294.21 -0.93, 300.79 6.97, 300 22.5 M300 22.5 C299.53 34.26, 299.45 45.97, 300 67.5 M300 22.5 C299.32 34.72, 300.7 46.73, 300 67.5 M300 67.5 C300.61 83.11, 291.73 91.62, 277.5 90 M300 67.5 C299.51 83.2, 290.94 91.56, 277.5 90 M277.5 90 C195.02 89.88, 115.1 91.24, 22.5 90 M277.5 90 C197.33 88.69, 118.07 88.73, 22.5 90 M22.5 90 C6.31 89.57, -1.34 84.11, 0 67.5 M22.5 90 C8.15 90.93, 1.56 83.56, 0 67.5 M0 67.5 C-1.58 57.58, -0.14 49.94, 0 22.5 M0 67.5 C0 58.55, -0.51 47.44, 0 22.5 M0 22.5 C-1.47 7.28, 8.33 -0.12, 22.5 0 M0 22.5 C-0.82 5.75, 9.44 -2.08, 22.5 0" stroke="#334155" stroke-width="1.5" fill="none"></path></g><g transform="translate(40 132.5) rotate(0 135 22.5)"><text x="135" y="16.1103515625" font-family="Helvetica, sans-serif, Segoe UI Emoji" font-size="18px" fill="#334155" text-anchor="middle" style="white-space: pre;" direction="ltr" dominant-baseline="alphabetic">Health checker</text><text x="135" y="38.6103515625" font-family="Helvetica, sans-serif, Segoe UI Emoji" font-size="18px" fill="#334155" text-anchor="middle" style="white-space: pre;" direction="ltr" dominant-baseline="alphabetic">us-east-1</text></g><g stroke-linecap="round"><g transform="translate(175 200) rotate(0 195 67.5)"><path d="M0 0 C84.15 29.26, 170.93 57.57, 390 135 M0 0 C102.33 35.02, 205.26 70.38, 390 135" stroke="#334155" stroke-width="1.5" fill="none"></path></g><g transform="translate(175 200) rotate(0 195 67.5)"><path d="M365 135.34 C368.93 136.55, 377.61 134.42, 390 135 M365 135.34 C372.04 135.12, 379.11 134.69, 390 135" stroke="#334155" stroke-width="1.5" fill="none"></path></g><g transform="translate(175 200) rotate(0 195 67.5)"><path d="M370.63 119.19 C373.33 123.95, 380.77 125.34, 390 135 M370.63 119.19 C376.06 123.24, 381.65 127.06, 390 135" stroke="#334155" stroke-width="1.5" fill="none"></path></g></g><mask></mask><g transform="translate(330 237.5) rotate(0 45.974999999999994 10)"><text x="0" y="14.3203125" font-family="Helvetica, sans-serif, Segoe UI Emoji" font-size="16px" fill="#334155" text-anchor="start" style="white-space: pre;" direction="ltr" dominant-baseline="alphabetic">Проверка</text></g><g stroke-linecap="round" transform="translate(415 110) rotate(0 150 45)"><path d="M22.5 0 C89.69 0.37, 153.56 5.41, 277.5 0 C294.53 0.65, 302.21 4.42, 300 22.5 C298.55 36.39, 302.68 56.99, 300 67.5 C297.66 84.19, 293.87 93.16, 277.5 90 C203.01 92.58, 122.82 88.9, 22.5 90 C9.92 91.75, -1.57 84.1, 0 67.5 C1.39 59.22, -2.12 47.88, 0 22.5 C-1.15 8, 9.31 1.66, 22.5 0" stroke="none" stroke-width="0" fill="#ede9fe"></path><path d="M22.5 0 C78.25 -2.28, 134.55 -0.39, 277.5 0 M22.5 0 C76.03 1.46, 128.58 1.54, 277.5 0 M277.5 0 C293.39 1.96, 298.89 8.86, 300 22.5 M277.5 0 C290.4 1.31, 300.05 9.29, 300 22.5 M300 22.5 C297.74 38.41, 299.92 49.2, 300 67.5 M300 22.5 C299.91 33.57, 300.29 42.6, 300 67.5 M300 67.5 C298.99 80.72, 293.66 88.74, 277.5 90 M300 67.5 C301.95 83.45, 294.68 90.2, 277.5 90 M277.5 90 C179.21 89.1, 83.22 90.53, 22.5 90 M277.5 90 C182.16 88.86, 85.03 88.42, 22.5 90 M22.5 90 C6.77 88.42, 1.96 82.22, 0 67.5 M22.5 90 C6.27 90.85, 0.99 83.95, 0 67.5 M0 67.5 C-0.87 49.82, 0.5 34.57, 0 22.5 M0 67.5 C-0.57 52.34, -0.21 37.24, 0 22.5 M0 22.5 C0.27 7.26, 6.12 -1.36, 22.5 0 M0 22.5 C1.3 6.66, 8.9 -2.19, 22.5 0" stroke="#334155" stroke-width="1.5" fill="none"></path></g><g transform="translate(430 132.5) rotate(0 135 22.5)"><text x="135" y="16.1103515625" font-family="Helvetica, sans-serif, Segoe UI Emoji" font-size="18px" fill="#334155" text-anchor="middle" style="white-space: pre;" direction="ltr" dominant-baseline="alphabetic">Health checker</text><text x="135" y="38.6103515625" font-family="Helvetica, sans-serif, Segoe UI Emoji" font-size="18px" fill="#334155" text-anchor="middle" style="white-space: pre;" direction="ltr" dominant-baseline="alphabetic">eu-west-1</text></g><g stroke-linecap="round"><g transform="translate(565 200) rotate(0 0.49489248355871496 67.5)"><path d="M0 0 C2.75 30.68, 1.26 58.86, 0 135 M0 0 C-1.1 48.2, -0.31 94.14, 0 135" stroke="#334155" stroke-width="1.5" fill="none"></path></g><g transform="translate(565 200) rotate(0 0.49489248355871496 67.5)"><path d="M-8.76 111.59 C-4.79 118.01, -4.37 121.85, 0 135 M-8.76 111.59 C-6.5 120.54, -2.63 127.29, 0 135" stroke="#334155" stroke-width="1.5" fill="none"></path></g><g transform="translate(565 200) rotate(0 0.49489248355871496 67.5)"><path d="M8.34 111.43 C8.58 117.76, 5.28 121.64, 0 135 M8.34 111.43 C4.59 120.55, 2.45 127.36, 0 135" stroke="#334155" stroke-width="1.5" fill="none"></path></g></g><mask></mask><g transform="translate(525 237.5) rotate(0 45.97500000000002 10)"><text x="0" y="14.3203125" font-family="Helvetica, sans-serif, Segoe UI Emoji" font-size="16px" fill="#334155" text-anchor="start" style="white-space: pre;" direction="ltr" dominant-baseline="alphabetic">Проверка</text></g><g stroke-linecap="round" transform="translate(805 110) rotate(0 150 45)"><path d="M22.5 0 C108.97 1.5, 195.69 4.64, 277.5 0 C291.16 -3, 296.72 4.24, 300 22.5 C299.47 32.91, 298.02 50.84, 300 67.5 C302.99 83.03, 295.56 92.24, 277.5 90 C213.67 89.35, 154.68 93.43, 22.5 90 C5.19 87.82, -0.13 79.26, 0 67.5 C0.86 48.99, 3.41 30.76, 0 22.5 C0.45 4.97, 6.4 -0.24, 22.5 0" stroke="none" stroke-width="0" fill="#ede9fe"></path><path d="M22.5 0 C77.8 0.05, 133.52 -0.64, 277.5 0 M22.5 0 C97.48 -0.31, 172.71 0.47, 277.5 0 M277.5 0 C292.2 0.08, 298.41 7.37, 300 22.5 M277.5 0 C291.2 -1.04, 299.31 7.02, 300 22.5 M300 22.5 C299.96 38.56, 300.38 56.42, 300 67.5 M300 22.5 C299.59 39.42, 298.97 56.46, 300 67.5 M300 67.5 C301.38 82.32, 291.6 89.86, 277.5 90 M300 67.5 C299.79 83.7, 293.83 88.84, 277.5 90 M277.5 90 C214.39 88.32, 150.12 89.82, 22.5 90 M277.5 90 C216.37 87.4, 155.61 88.12, 22.5 90 M22.5 90 C7.22 91.27, 1.26 84.33, 0 67.5 M22.5 90 C9 90.78, 0.43 84.33, 0 67.5 M0 67.5 C0.74 55.07, 2.04 41.21, 0 22.5 M0 67.5 C0.86 57.14, 0.08 47.04, 0 22.5 M0 22.5 C-1.99 7.25, 7.91 1.41, 22.5 0 M0 22.5 C-1.18 7.58, 8.35 -2.3, 22.5 0" stroke="#334155" stroke-width="1.5" fill="none"></path></g><g transform="translate(820 132.5) rotate(0 135 22.5)"><text x="135" y="16.1103515625" font-family="Helvetica, sans-serif, Segoe UI Emoji" font-size="18px" fill="#334155" text-anchor="middle" style="white-space: pre;" direction="ltr" dominant-baseline="alphabetic">Health checker</text><text x="135" y="38.6103515625" font-family="Helvetica, sans-serif, Segoe UI Emoji" font-size="18px" fill="#334155" text-anchor="middle" style="white-space: pre;" direction="ltr" dominant-baseline="alphabetic">ap-southeast-1</text></g><g stroke-linecap="round"><g transform="translate(955 200) rotate(0 -195 67.5)"><path d="M0 0 C-84.82 30.16, -171.05 59.34, -390 135 M0 0 C-93.06 30.07, -186.84 62.04, -390 135" stroke="#334155" stroke-width="1.5" fill="none"></path></g><g transform="translate(955 200) rotate(0 -195 67.5)"><path d="M-370.74 119.06 C-373.71 123.65, -380.1 126.67, -390 135 M-370.74 119.06 C-375.27 122.33, -380.79 125.55, -390 135" stroke="#334155" stroke-width="1.5" fill="none"></path></g><g transform="translate(955 200) rotate(0 -195 67.5)"><path d="M-365 135.17 C-369.11 136.25, -376.75 135.75, -390 135 M-365 135.17 C-370.96 134.53, -377.84 133.9, -390 135" stroke="#334155" stroke-width="1.5" fill="none"></path></g></g><mask></mask><g transform="translate(720 237.5) rotate(0 45.97500000000002 10)"><text x="0" y="14.3203125" font-family="Helvetica, sans-serif, Segoe UI Emoji" font-size="16px" fill="#334155" text-anchor="start" style="white-space: pre;" direction="ltr" dominant-baseline="alphabetic">Проверка</text></g><g stroke-linecap="round" transform="translate(355 335) rotate(0 210 52.5)"><path d="M26.25 0 C105.68 2.76, 188.03 3.7, 393.75 0 C413.75 0.54, 418.43 5.31, 420 26.25 C420.49 45.01, 420.65 64.91, 420 78.75 C421.13 95.62, 408.8 106.32, 393.75 105 C252.32 107.09, 113.79 107.24, 26.25 105 C8.91 106.1, 1.31 95.37, 0 78.75 C-1.24 56.25, 0.17 37.38, 0 26.25 C2.05 10.39, 11.95 -2.15, 26.25 0" stroke="none" stroke-width="0" fill="#dcfce7"></path><path d="M26.25 0 C105.8 -1.66, 185.59 -1.7, 393.75 0 M26.25 0 C167.33 -0.54, 308.3 -0.64, 393.75 0 M393.75 0 C409.76 -1.8, 421.93 7.13, 420 26.25 M393.75 0 C410.74 1.2, 418.57 10.6, 420 26.25 M420 26.25 C418.15 39.37, 420.82 53.2, 420 78.75 M420 26.25 C420.17 44.58, 420.55 61.2, 420 78.75 M420 78.75 C419.76 97.68, 412.29 105.98, 393.75 105 M420 78.75 C422.24 97.71, 411.72 107.08, 393.75 105 M393.75 105 C280.04 105.52, 165.24 104.23, 26.25 105 M393.75 105 C281.93 106.83, 170.8 107.03, 26.25 105 M26.25 105 C8.92 105.12, 0.55 96.19, 0 78.75 M26.25 105 C8.37 105.71, -0.13 98.47, 0 78.75 M0 78.75 C1.44 65.68, -1.33 51.31, 0 26.25 M0 78.75 C0.26 61.66, 0.36 43.04, 0 26.25 M0 26.25 C-0.24 8.48, 6.96 0.18, 26.25 0 M0 26.25 C0.94 9.74, 9.06 2.19, 26.25 0" stroke="#334155" stroke-width="1.5" fill="none"></path></g><g transform="translate(370 365) rotate(0 195 22.5)"><text x="195" y="16.1103515625" font-family="Helvetica, sans-serif, Segoe UI Emoji" font-size="18px" fill="#334155" text-anchor="middle" style="white-space: pre;" direction="ltr" dominant-baseline="alphabetic">Публичный endpoint</text><text x="195" y="38.6103515625" font-family="Helvetica, sans-serif, Segoe UI Emoji" font-size="18px" fill="#334155" text-anchor="middle" style="white-space: pre;" direction="ltr" dominant-baseline="alphabetic">HTTP / HTTPS / TCP</text></g><g transform="translate(25 510) rotate(0 386.95 10.625)"><text x="0" y="15.21533203125" font-family="Helvetica, sans-serif, Segoe UI Emoji" font-size="17px" fill="#334155" text-anchor="start" style="white-space: pre;" direction="ltr" dominant-baseline="alphabetic">Интервал 30 с или 10 с. HTTP: 2xx / 3xx, опционально строка в первых 5120 байтах.</text></g><g transform="translate(25 560) rotate(0 404.2 10.625)"><text x="0" y="15.21533203125" font-family="Helvetica, sans-serif, Segoe UI Emoji" font-size="17px" fill="#334155" text-anchor="start" style="white-space: pre;" direction="ltr" dominant-baseline="alphabetic">Нужны разрешения firewall для IP health checkers; итог зависит от нескольких проверок.</text></g></svg>