<svg version="1.1" xmlns="http://www.w3.org/2000/svg" viewBox="0 0 1045 446.25" width="1045" height="446.25"><!-- svg-source:excalidraw --><metadata></metadata><defs><style class="style-fonts">
      </style></defs><rect x="0" y="0" width="1045" height="446.25" fill="#ffffff"></rect><g transform="translate(25 25) rotate(0 244.90703125 16.25)"><text x="0" y="23.2705078125" font-family="Helvetica, sans-serif, Segoe UI Emoji" font-size="26px" fill="#334155" text-anchor="start" style="white-space: pre;" direction="ltr" dominant-baseline="alphabetic">VPC: Network ACL и Security Group</text></g><g stroke-linecap="round" transform="translate(25 210) rotate(0 100 37.5)"><path d="M18.75 0 C56.4 -2.03, 92.67 0.13, 181.25 0 C196.54 -2.09, 199.87 8.16, 200 18.75 C201.54 24.96, 200.07 31.16, 200 56.25 C200.98 69.93, 192.5 75.67, 181.25 75 C130.07 73.06, 89.56 73.12, 18.75 75 C2.66 78.55, -2.91 69.44, 0 56.25 C0.78 42.3, 3.36 34.31, 0 18.75 C-1.89 6.9, 9.04 1.08, 18.75 0" stroke="none" stroke-width="0" fill="#dbeafe"></path><path d="M18.75 0 C52.96 -0.29, 86.82 -0.6, 181.25 0 M18.75 0 C73.2 1.91, 128.79 0.54, 181.25 0 M181.25 0 C191.82 0.26, 198.66 6.9, 200 18.75 M181.25 0 C192.75 -1.12, 198.77 4.69, 200 18.75 M200 18.75 C201.91 32.47, 199.24 42.77, 200 56.25 M200 18.75 C199.81 30.37, 200.78 42.24, 200 56.25 M200 56.25 C198.55 69, 192.78 73.32, 181.25 75 M200 56.25 C197.92 69.59, 195.34 74.88, 181.25 75 M181.25 75 C132.79 75.52, 81 75.97, 18.75 75 M181.25 75 C141.14 73.12, 98.81 73.17, 18.75 75 M18.75 75 C5.62 76.96, 1.9 67.44, 0 56.25 M18.75 75 C7.43 73.48, -0.4 70.88, 0 56.25 M0 56.25 C-0.12 41.86, 1.22 26.09, 0 18.75 M0 56.25 C1.06 42.33, -0.24 27.7, 0 18.75 M0 18.75 C-1.21 4.69, 5.63 -0.49, 18.75 0 M0 18.75 C1.74 7.88, 7.68 -2.29, 18.75 0" stroke="#334155" stroke-width="1.5" fill="none"></path></g><g transform="translate(85.5 236.25) rotate(0 49.425 11.25)"><text x="0" y="16.1103515625" font-family="Helvetica, sans-serif, Segoe UI Emoji" font-size="18px" fill="#334155" text-anchor="start" style="white-space: pre;" direction="ltr" dominant-baseline="alphabetic">Интернет</text></g><g stroke-linecap="round" transform="translate(290 210) rotate(0 100 37.5)"><path d="M18.75 0 C62.21 1.67, 106.5 -0.94, 181.25 0 C194.85 -0.32, 200.72 8.07, 200 18.75 C197.72 27.34, 200.66 39.92, 200 56.25 C196.45 69.35, 196.95 71.62, 181.25 75 C119.55 71.61, 64.25 76.47, 18.75 75 C3.9 72.98, -2.19 67.02, 0 56.25 C2.67 48.94, -2.52 42.05, 0 18.75 C2.51 5.38, 7.59 0.12, 18.75 0" stroke="none" stroke-width="0" fill="#dbeafe"></path><path d="M18.75 0 C50.68 0.98, 86.18 1.06, 181.25 0 M18.75 0 C64.49 -1.63, 110.13 -0.56, 181.25 0 M181.25 0 C193.23 1.31, 200.42 6.16, 200 18.75 M181.25 0 C193.15 0.01, 200.7 8.15, 200 18.75 M200 18.75 C200.64 34.28, 201.09 47.85, 200 56.25 M200 18.75 C200.33 28.95, 198.8 39.49, 200 56.25 M200 56.25 C199.74 69.81, 193.75 73.88, 181.25 75 M200 56.25 C199.14 69.72, 192.61 76.5, 181.25 75 M181.25 75 C125.8 75.06, 72.87 75.55, 18.75 75 M181.25 75 C135.59 75.63, 90.05 76.38, 18.75 75 M18.75 75 C5.85 76.39, 1.55 68.5, 0 56.25 M18.75 75 C6.5 73.44, -0.68 66.48, 0 56.25 M0 56.25 C-1.35 42.29, -0.05 29.01, 0 18.75 M0 56.25 C-0.21 43.38, 0.92 31.89, 0 18.75 M0 18.75 C-0.34 4.68, 6.53 0.89, 18.75 0 M0 18.75 C0.5 8.34, 5.11 2.26, 18.75 0" stroke="#334155" stroke-width="1.5" fill="none"></path></g><g transform="translate(326 225) rotate(0 77.6 22.5)"><text x="0" y="16.1103515625" font-family="Helvetica, sans-serif, Segoe UI Emoji" font-size="18px" fill="#334155" text-anchor="start" style="white-space: pre;" direction="ltr" dominant-baseline="alphabetic">NACL</text><text x="0" y="38.6103515625" font-family="Helvetica, sans-serif, Segoe UI Emoji" font-size="18px" fill="#334155" text-anchor="start" style="white-space: pre;" direction="ltr" dominant-baseline="alphabetic">ALLOW / DENY</text></g><g stroke-linecap="round"><g transform="translate(225 247) rotate(0 32.5 -0.2545014450154639)"><path d="M0 0 C13.7 -0.9, 26.92 -0.42, 65 0 M0 0 C15.02 -0.08, 28.7 -0.58, 65 0" stroke="#334155" stroke-width="1.5" fill="none"></path></g><g transform="translate(225 247) rotate(0 32.5 -0.2545014450154639)"><path d="M41.42 8.32 C46.65 6.08, 51.39 4.86, 65 0 M41.42 8.32 C47.03 6.28, 51.35 3.91, 65 0" stroke="#334155" stroke-width="1.5" fill="none"></path></g><g transform="translate(225 247) rotate(0 32.5 -0.2545014450154639)"><path d="M41.59 -8.78 C46.8 -7.52, 51.5 -5.24, 65 0 M41.59 -8.78 C47.29 -6.96, 51.57 -5.47, 65 0" stroke="#334155" stroke-width="1.5" fill="none"></path></g></g><mask></mask><g stroke-linecap="round" transform="translate(555 210) rotate(0 100 37.5)"><path d="M18.75 0 C70.94 -2.22, 127.25 -1.21, 181.25 0 C192.33 2.33, 198.4 7.93, 200 18.75 C197.61 30.76, 203.57 34.76, 200 56.25 C200.45 68.48, 192.82 76.33, 181.25 75 C123.62 75.96, 58.79 70.02, 18.75 75 C5.75 75.44, 2.49 70.59, 0 56.25 C-0.34 40.43, -2.79 31.15, 0 18.75 C-1.69 6.71, 9.01 2.29, 18.75 0" stroke="none" stroke-width="0" fill="#dbeafe"></path><path d="M18.75 0 C51.25 -1.49, 83.23 -0.81, 181.25 0 M18.75 0 C66.68 -0.68, 115.64 0.05, 181.25 0 M181.25 0 C195.34 0.9, 201.06 5.04, 200 18.75 M181.25 0 C196.04 -0.61, 199 6.45, 200 18.75 M200 18.75 C199.1 25.5, 198.24 34.48, 200 56.25 M200 18.75 C200.23 27.82, 200.95 38.36, 200 56.25 M200 56.25 C199.52 67.01, 193.2 74.72, 181.25 75 M200 56.25 C200.97 67.61, 193.12 76.63, 181.25 75 M181.25 75 C119.32 76.36, 58.68 76.92, 18.75 75 M181.25 75 C128.28 76.51, 72.92 75.33, 18.75 75 M18.75 75 C6.19 73.52, -0.98 68.08, 0 56.25 M18.75 75 C5.09 75.69, -1.1 69.07, 0 56.25 M0 56.25 C-1.95 48.67, 1.29 40.9, 0 18.75 M0 56.25 C0.5 43.19, -0.71 30.68, 0 18.75 M0 18.75 C-1.03 4.67, 7.87 -1.03, 18.75 0 M0 18.75 C0.94 4.42, 5.85 2.18, 18.75 0" stroke="#334155" stroke-width="1.5" fill="none"></path></g><g transform="translate(595 225) rotate(0 73 22.5)"><text x="0" y="16.1103515625" font-family="Helvetica, sans-serif, Segoe UI Emoji" font-size="18px" fill="#334155" text-anchor="start" style="white-space: pre;" direction="ltr" dominant-baseline="alphabetic">Security Group</text><text x="0" y="38.6103515625" font-family="Helvetica, sans-serif, Segoe UI Emoji" font-size="18px" fill="#334155" text-anchor="start" style="white-space: pre;" direction="ltr" dominant-baseline="alphabetic">ALLOW</text></g><g stroke-linecap="round"><g transform="translate(490 247) rotate(0 32.5 0.31420354223369884)"><path d="M0 0 C14.27 0.25, 27.96 1.33, 65 0 M0 0 C15.65 0.68, 31.09 -0.16, 65 0" stroke="#334155" stroke-width="1.5" fill="none"></path></g><g transform="translate(490 247) rotate(0 32.5 0.31420354223369884)"><path d="M41.53 8.6 C47.26 7.29, 52.45 6.61, 65 0 M41.53 8.6 C47.21 7.05, 52.61 4.13, 65 0" stroke="#334155" stroke-width="1.5" fill="none"></path></g><g transform="translate(490 247) rotate(0 32.5 0.31420354223369884)"><path d="M41.49 -8.5 C47.33 -6.31, 52.53 -3.49, 65 0 M41.49 -8.5 C47.03 -5.92, 52.44 -4.7, 65 0" stroke="#334155" stroke-width="1.5" fill="none"></path></g></g><mask></mask><g stroke-linecap="round" transform="translate(820 210) rotate(0 100 37.5)"><path d="M18.75 0 C79.66 -0.26, 140.8 4.38, 181.25 0 C197 -2.21, 203.29 7.8, 200 18.75 C203.36 26.98, 197.93 36.81, 200 56.25 C197.25 67.61, 195.89 73.84, 181.25 75 C120.49 78.96, 60.52 76.63, 18.75 75 C7.61 77.9, -0.03 66.96, 0 56.25 C-3.36 46.63, -3.06 35.25, 0 18.75 C1.32 8.04, 3.23 -2.74, 18.75 0" stroke="none" stroke-width="0" fill="#dbeafe"></path><path d="M18.75 0 C51.82 0.04, 84.27 1.32, 181.25 0 M18.75 0 C68.86 0.27, 121.15 -1.35, 181.25 0 M181.25 0 C193.45 0.49, 201.69 7.92, 200 18.75 M181.25 0 C194.34 -1.23, 201.89 4.74, 200 18.75 M200 18.75 C198.32 28.22, 200.14 40.11, 200 56.25 M200 18.75 C200.13 26.69, 201.09 35.23, 200 56.25 M200 56.25 C199.31 68.22, 192.66 75.56, 181.25 75 M200 56.25 C198.2 70.1, 193.62 76.76, 181.25 75 M181.25 75 C145.33 73.67, 105.49 74.29, 18.75 75 M181.25 75 C118.96 75.38, 57.78 76.27, 18.75 75 M18.75 75 C6.53 74.66, 0.5 67.66, 0 56.25 M18.75 75 C8.28 73.34, -1.52 67.05, 0 56.25 M0 56.25 C-1.81 47.56, -0.62 33.78, 0 18.75 M0 56.25 C-0.03 41.01, 0.41 27.47, 0 18.75 M0 18.75 C-1.73 4.66, 5.22 1.04, 18.75 0 M0 18.75 C1.38 5.11, 6.59 2.09, 18.75 0" stroke="#334155" stroke-width="1.5" fill="none"></path></g><g transform="translate(902.5 236.25) rotate(0 24.125 11.25)"><text x="0" y="16.1103515625" font-family="Helvetica, sans-serif, Segoe UI Emoji" font-size="18px" fill="#334155" text-anchor="start" style="white-space: pre;" direction="ltr" dominant-baseline="alphabetic">EC2</text></g><g stroke-linecap="round"><g transform="translate(755 247) rotate(0 32.5 0.11594632349628853)"><path d="M0 0 C14.85 1.39, 25 -0.93, 65 0 M0 0 C16.27 -0.56, 33.48 0.26, 65 0" stroke="#334155" stroke-width="1.5" fill="none"></path></g><g transform="translate(755 247) rotate(0 32.5 0.11594632349628853)"><path d="M41.51 8.56 C47.94 8.24, 49.61 4.17, 65 0 M41.51 8.56 C47.13 5.57, 53.63 4.17, 65 0" stroke="#334155" stroke-width="1.5" fill="none"></path></g><g transform="translate(755 247) rotate(0 32.5 0.11594632349628853)"><path d="M41.5 -8.54 C47.78 -5.36, 49.45 -5.94, 65 0 M41.5 -8.54 C47.04 -7.13, 53.55 -4.11, 65 0" stroke="#334155" stroke-width="1.5" fill="none"></path></g></g><mask></mask><g transform="translate(25 350) rotate(0 338.64101562499997 10.625)"><text x="0" y="15.21533203125" font-family="Helvetica, sans-serif, Segoe UI Emoji" font-size="17px" fill="#475569" text-anchor="start" style="white-space: pre;" direction="ltr" dominant-baseline="alphabetic">NACL применяется к подсети: stateless, правила проверяются по номеру.</text></g><g transform="translate(25 400) rotate(0 412.825 10.625)"><text x="0" y="15.21533203125" font-family="Helvetica, sans-serif, Segoe UI Emoji" font-size="17px" fill="#475569" text-anchor="start" style="white-space: pre;" direction="ltr" dominant-baseline="alphabetic">Security Group применяется к ENI: stateful, ответный трафик разрешается автоматически.</text></g></svg>